P3
# CREATOR: GIMP PNM Filter Version 1.1
32 16
255
0
0
0
0
0
0
0
0
0
0
0
0
0
0
0
0
0
0
0
0
0
0
0
0
0
0
0
0
0
0
0
0
0
0
0
0
0
0
0
0
0
0
0
0
0
0
0
0
0
0
0
0
0
0
0
0
0
0
0
0
0
0
0
0
0
0
0
0
0
0
0
0
0
0
0
0
0
0
0
0
0
0
0
0
0
0
0
0
0
0
0
0
0
0
0
0
0
0
0
0
0
0
0
0
0
0
0
0
0
0
0
0
0
0
0
0
0
0
0
0
0
0
0
0
0
0
0
0
0
0
0
0
0
0
0
0
0
0
0
0
0
0
0
0
0
0
0
0
0
0
0
0
0
0
0
0
0
0
0
0
0
0
0
0
0
0
0
0
0
0
0
0
0
0
0
0
0
0
0
0
0
0
0
0
0
0
0
0
0
0
0
0
0
0
0
0
0
0
0
0
0
0
0
0
0
0
0
0
0
0
0
0
0
0
0
0
0
0
0
0
0
0
0
0
0
0
0
0
0
0
0
0
0
0
0
0
0
0
0
0
0
0
0
0
0
0
0
0
0
0
0
0
0
0
0
0
0
0
0
0
0
0
0
0
0
0
0
0
0
0
0
0
0
0
0
0
0
0
0
0
0
0
0
0
0
0
0
0
0
0
0
0
0
0
0
0
0
0
0
0
0
0
0
0
0
0
0
0
0
0
0
0
0
0
0
145
48
48
145
48
48
145
48
48
145
48
48
145
48
48
145
48
48
145
48
48
145
48
48
145
48
48
145
48
48
145
48
48
145
48
48
217
142
142
217
142
142
0
0
0
0
0
0
0
0
0
0
0
0
0
0
0
0
0
0
0
0
0
0
0
0
0
0
0
0
0
0
0
0
0
0
0
0
0
0
0
0
0
0
0
0
0
0
0
0
0
0
0
145
48
48
145
48
48
0
0
0
0
0
0
145
48
48
145
48
48
145
48
48
0
0
0
0
0
0
0
0
0
0
0
0
0
0
0
145
48
48
145
48
48
145
48
48
217
142
142
0
0
0
0
0
0
0
0
0
0
0
0
0
0
0
0
0
0
0
0
0
0
0
0
0
0
0
0
0
0
0
0
0
0
0
0
0
0
0
0
0
0
0
0
0
0
0
0
145
48
48
0
0
0
207
112
112
207
112
112
0
0
0
145
48
48
0
0
0
145
48
48
145
48
48
217
142
142
217
142
142
217
142
142
0
0
0
145
48
48
145
48
48
145
48
48
217
142
142
0
0
0
0
0
0
0
0
0
0
0
0
0
0
0
0
0
0
0
0
0
0
0
0
0
0
0
0
0
0
0
0
0
0
0
0
0
0
0
0
0
0
0
0
0
145
48
48
0
0
0
0
0
0
0
0
0
0
0
0
145
48
48
0
0
0
0
0
0
0
0
0
0
0
0
145
48
48
217
142
142
0
0
0
145
48
48
145
48
48
145
48
48
0
0
0
145
48
48
0
0
0
0
0
0
0
0
0
217
142
142
217
142
142
0
0
0
0
0
0
0
0
0
0
0
0
0
0
0
0
0
0
0
0
0
0
0
0
0
0
0
145
48
48
0
0
0
207
112
112
207
112
112
0
0
0
145
48
48
0
0
0
207
112
112
207
112
112
207
112
112
0
0
0
145
48
48
0
0
0
145
48
48
145
48
48
145
48
48
0
0
0
145
48
48
0
0
0
0
0
0
0
0
0
217
142
142
217
142
142
0
0
0
0
0
0
0
0
0
0
0
0
0
0
0
0
0
0
0
0
0
0
0
0
0
0
0
145
48
48
0
0
0
0
0
0
0
0
0
0
0
0
145
48
48
0
0
0
207
112
112
207
112
112
207
112
112
0
0
0
145
48
48
0
0
0
145
48
48
145
48
48
145
48
48
145
48
48
0
0
0
0
0
0
0
0
0
0
0
0
0
0
0
0
0
0
0
0
0
0
0
0
0
0
0
0
0
0
0
0
0
0
0
0
0
0
0
0
0
0
0
0
0
145
48
48
0
0
0
207
112
112
207
112
112
0
0
0
145
48
48
0
0
0
207
112
112
0
0
0
207
112
112
0
0
0
145
48
48
0
0
0
145
48
48
145
48
48
145
48
48
145
48
48
0
0
0
0
0
0
0
0
0
0
0
0
0
0
0
0
0
0
0
0
0
0
0
0
0
0
0
0
0
0
0
0
0
0
0
0
0
0
0
0
0
0
0
0
0
145
48
48
0
0
0
0
0
0
0
0
0
0
0
0
145
48
48
0
0
0
0
0
0
0
0
0
0
0
0
0
0
0
145
48
48
0
0
0
145
48
48
145
48
48
145
48
48
0
0
0
0
0
0
0
0
0
0
0
0
0
0
0
0
0
0
0
0
0
0
0
0
0
0
0
0
0
0
0
0
0
0
0
0
0
0
0
0
0
0
0
0
0
0
0
0
0
0
0
145
48
48
0
0
0
207
112
112
0
0
0
145
48
48
0
0
0
207
112
112
207
112
112
207
112
112
0
0
0
145
48
48
0
0
0
145
48
48
145
48
48
0
0
0
0
0
0
0
0
0
0
0
0
0
0
0
0
0
0
0
0
0
0
0
0
0
0
0
0
0
0
0
0
0
0
0
0
0
0
0
0
0
0
0
0
0
0
0
0
0
0
0
0
0
0
0
0
0
0
0
0
0
0
0
0
0
0
0
0
0
0
0
0
207
112
112
207
112
112
207
112
112
0
0
0
145
48
48
0
0
0
0
0
0
0
0
0
0
0
0
0
0
0
0
0
0
0
0
0
0
0
0
0
0
0
0
0
0
0
0
0
0
0
0
0
0
0
0
0
0
0
0
0
0
0
0
0
0
0
0
0
0
0
0
0
0
0
0
0
0
0
0
0
0
0
0
0
0
0
0
0
0
0
0
0
0
0
0
0
207
112
112
0
0
0
207
112
112
0
0
0
145
48
48
0
0
0
0
0
0
0
0
0
0
0
0
0
0
0
0
0
0
0
0
0
0
0
0
0
0
0
0
0
0
0
0
0
0
0
0
0
0
0
0
0
0
0
0
0
0
0
0
0
0
0
0
0
0
0
0
0
0
0
0
0
0
0
0
0
0
0
0
0
0
0
0
0
0
0
0
0
0
0
0
0
0
0
0
0
0
0
0
0
0
0
0
0
0
0
0
0
0
0
0
0
0
0
0
0
0
0
0
0
0
0
0
0
0
0
0
0
0
0
0
0
0
0
0
0
0
0
0
0
0
0
0
0
0
0
0
0
0
0
0
0
0
0
0
0
0
0
0
0
0
0
0
0
0
0
0
0
0
0
0
0
0
0
0
0
0
0
0
0
0
0
0
0
0
0
0
0
0
0
0
0
0
0
0
0
0
0
0
0
0
0
0
0
0
0
0
0
0
0
0
0
0
0
0
0
0
0
0
0
0
0
0
0
0
0
0
0
0
0
0
0
0
0
0
0
0
0
0
