P3
# CREATOR: GIMP PNM Filter Version 1.1
32 16
255
0
0
0
0
0
0
0
0
0
0
0
0
0
0
0
0
0
0
0
0
0
0
0
0
0
0
0
0
0
0
0
0
0
0
0
0
0
0
0
0
0
0
130
43
43
130
43
43
130
43
43
130
43
43
130
43
43
130
43
43
0
0
0
0
0
0
0
0
0
0
0
0
0
0
0
0
0
0
0
0
0
0
0
0
0
0
0
0
0
0
0
0
0
0
0
0
0
0
0
0
0
0
0
0
0
130
43
43
130
43
43
130
43
43
130
43
43
130
43
43
0
0
0
0
0
0
0
0
0
0
0
0
0
0
0
0
0
0
0
0
0
0
0
0
0
0
0
0
0
0
0
0
0
0
0
0
130
43
43
0
0
0
0
0
0
0
0
0
0
0
0
0
0
0
0
0
0
0
0
0
0
0
0
0
0
0
0
0
0
0
0
0
0
0
0
0
0
0
130
43
43
130
43
43
130
43
43
0
0
0
0
0
0
130
43
43
130
43
43
0
0
0
0
0
0
0
0
0
130
43
43
130
43
43
130
43
43
130
43
43
130
43
43
130
43
43
0
0
0
0
0
0
0
0
0
0
0
0
0
0
0
0
0
0
0
0
0
0
0
0
0
0
0
0
0
0
0
0
0
0
0
0
0
0
0
0
0
0
0
0
0
130
43
43
130
43
43
130
43
43
0
0
0
0
0
0
0
0
0
0
0
0
130
43
43
130
43
43
0
0
0
0
0
0
130
43
43
130
43
43
130
43
43
130
43
43
130
43
43
130
43
43
130
43
43
130
43
43
130
43
43
130
43
43
0
0
0
0
0
0
0
0
0
0
0
0
0
0
0
0
0
0
0
0
0
0
0
0
0
0
0
0
0
0
130
43
43
130
43
43
130
43
43
0
0
0
0
0
0
0
0
0
43
14
14
0
0
0
0
0
0
130
43
43
0
0
0
0
0
0
0
0
0
130
43
43
130
43
43
130
43
43
130
43
43
130
43
43
130
43
43
130
43
43
130
43
43
130
43
43
130
43
43
0
0
0
0
0
0
0
0
0
0
0
0
0
0
0
0
0
0
0
0
0
0
0
0
0
0
0
130
43
43
130
43
43
0
0
0
0
0
0
0
0
0
43
14
14
0
0
0
0
0
0
0
0
0
130
43
43
130
43
43
0
0
0
0
0
0
130
43
43
124
41
41
130
43
43
130
43
43
130
43
43
130
43
43
130
43
43
130
43
43
130
43
43
130
43
43
130
43
43
0
0
0
0
0
0
0
0
0
0
0
0
0
0
0
0
0
0
0
0
0
0
0
0
130
43
43
130
43
43
0
0
0
0
0
0
0
0
0
0
0
0
43
14
14
0
0
0
0
0
0
130
43
43
130
43
43
0
0
0
0
0
0
130
43
43
124
41
41
130
43
43
130
43
43
130
43
43
130
43
43
130
43
43
130
43
43
130
43
43
130
43
43
130
43
43
130
43
43
0
0
0
0
0
0
0
0
0
0
0
0
0
0
0
0
0
0
0
0
0
130
43
43
130
43
43
0
0
0
0
0
0
0
0
0
0
0
0
0
0
0
0
0
0
0
0
0
130
43
43
130
43
43
0
0
0
0
0
0
130
43
43
124
41
41
130
43
43
130
43
43
130
43
43
130
43
43
130
43
43
130
43
43
130
43
43
130
43
43
130
43
43
130
43
43
130
43
43
0
0
0
0
0
0
0
0
0
0
0
0
0
0
0
0
0
0
130
43
43
130
43
43
0
0
0
0
0
0
0
0
0
0
0
0
0
0
0
0
0
0
0
0
0
130
43
43
130
43
43
0
0
0
0
0
0
130
43
43
124
41
41
130
43
43
130
43
43
130
43
43
130
43
43
130
43
43
130
43
43
130
43
43
130
43
43
124
41
41
130
43
43
130
43
43
0
0
0
0
0
0
0
0
0
0
0
0
0
0
0
0
0
0
130
43
43
130
43
43
0
0
0
0
0
0
0
0
0
0
0
0
43
14
14
0
0
0
0
0
0
130
43
43
130
43
43
0
0
0
0
0
0
130
43
43
124
41
41
130
43
43
130
43
43
130
43
43
130
43
43
130
43
43
130
43
43
130
43
43
124
41
41
130
43
43
130
43
43
0
0
0
0
0
0
0
0
0
0
0
0
0
0
0
0
0
0
0
0
0
130
43
43
130
43
43
0
0
0
0
0
0
0
0
0
43
14
14
0
0
0
0
0
0
0
0
0
130
43
43
130
43
43
0
0
0
0
0
0
130
43
43
124
41
41
130
43
43
130
43
43
130
43
43
130
43
43
130
43
43
130
43
43
124
41
41
130
43
43
130
43
43
0
0
0
0
0
0
0
0
0
0
0
0
0
0
0
0
0
0
0
0
0
0
0
0
130
43
43
130
43
43
130
43
43
0
0
0
0
0
0
0
0
0
43
14
14
0
0
0
0
0
0
130
43
43
0
0
0
0
0
0
0
0
0
124
41
41
130
43
43
130
43
43
130
43
43
124
41
41
124
41
41
124
41
41
124
41
41
130
43
43
130
43
43
0
0
0
0
0
0
0
0
0
0
0
0
0
0
0
0
0
0
0
0
0
0
0
0
0
0
0
0
0
0
130
43
43
130
43
43
130
43
43
0
0
0
0
0
0
0
0
0
0
0
0
130
43
43
130
43
43
0
0
0
0
0
0
130
43
43
124
41
41
124
41
41
124
41
41
124
41
41
130
43
43
130
43
43
130
43
43
130
43
43
130
43
43
0
0
0
0
0
0
0
0
0
0
0
0
0
0
0
0
0
0
0
0
0
0
0
0
0
0
0
0
0
0
0
0
0
0
0
0
130
43
43
130
43
43
130
43
43
0
0
0
0
0
0
130
43
43
130
43
43
0
0
0
0
0
0
0
0
0
130
43
43
130
43
43
130
43
43
130
43
43
130
43
43
130
43
43
0
0
0
0
0
0
0
0
0
0
0
0
0
0
0
0
0
0
0
0
0
0
0
0
0
0
0
0
0
0
0
0
0
0
0
0
0
0
0
0
0
0
0
0
0
0
0
0
0
0
0
130
43
43
130
43
43
130
43
43
130
43
43
130
43
43
0
0
0
0
0
0
0
0
0
0
0
0
0
0
0
0
0
0
0
0
0
0
0
0
0
0
0
0
0
0
0
0
0
0
0
0
130
43
43
0
0
0
0
0
0
0
0
0
0
0
0
0
0
0
0
0
0
0
0
0
0
0
0
0
0
0
0
0
0
0
0
0
0
0
0
0
0
0
0
0
0
0
0
0
0
0
0
0
0
0
0
0
0
0
0
0
0
0
0
0
0
0
0
0
0
0
0
0
0
0
0
0
0
0
130
43
43
130
43
43
130
43
43
130
43
43
130
43
43
130
43
43
0
0
0
0
0
0
0
0
0
0
0
0
0
0
0
0
0
0
0
0
0
0
0
0
0
0
0
0
0
0
0
0
0
0
0
0
