P3
# CREATOR: GIMP PNM Filter Version 1.1
32 16
255
0
0
0
0
0
0
0
0
0
0
0
0
0
0
0
0
0
0
0
0
0
0
0
0
0
0
0
0
0
0
0
0
0
0
0
0
0
0
0
0
0
0
0
0
0
0
0
0
0
0
0
0
0
0
0
0
0
0
0
0
0
0
0
0
0
0
0
0
0
0
0
0
0
0
0
0
0
0
0
0
0
0
0
0
0
0
0
0
0
0
0
0
0
0
0
0
0
0
0
0
0
0
0
0
0
0
0
0
0
0
0
0
0
0
0
0
0
0
0
0
0
0
0
0
0
0
0
0
0
0
0
0
0
0
0
0
0
0
0
0
0
0
0
0
0
0
0
0
0
0
0
0
0
0
0
0
0
0
0
0
0
0
0
0
0
0
0
0
0
0
0
0
0
0
0
0
0
0
0
0
0
0
0
0
0
0
0
0
0
0
0
0
0
0
0
0
0
0
0
0
0
0
0
0
0
0
0
0
0
0
0
0
0
0
0
0
0
0
0
0
0
0
0
0
0
0
0
0
0
0
0
70
23
23
70
23
23
108
36
36
108
36
36
108
36
36
108
36
36
108
36
36
0
0
0
0
0
0
0
0
0
0
0
0
0
0
0
0
0
0
0
0
0
0
0
0
0
0
0
0
0
0
0
0
0
0
0
0
0
0
0
0
0
0
0
0
0
0
0
0
0
0
0
0
0
0
0
0
0
0
0
0
0
0
0
0
0
0
0
0
0
0
0
0
0
0
0
70
23
23
70
23
23
108
36
36
108
36
36
108
36
36
108
36
36
108
36
36
0
0
0
131
44
44
131
44
44
131
44
44
131
44
44
131
44
44
131
44
44
131
44
44
0
0
0
0
0
0
0
0
0
0
0
0
0
0
0
0
0
0
0
0
0
0
0
0
0
0
0
0
0
0
0
0
0
0
0
0
0
0
0
70
23
23
70
23
23
0
0
0
0
0
0
0
0
0
0
0
0
108
36
36
108
36
36
108
36
36
108
36
36
131
44
44
131
44
44
131
44
44
131
44
44
131
44
44
131
44
44
131
44
44
0
0
0
0
0
0
0
0
0
0
0
0
0
0
0
0
0
0
0
0
0
0
0
0
0
0
0
0
0
0
0
0
0
0
0
0
0
0
0
0
0
0
0
0
0
70
23
23
70
23
23
254
253
253
254
253
253
108
36
36
108
36
36
108
36
36
206
109
109
254
253
253
108
36
36
108
36
36
196
81
81
196
81
81
231
184
184
131
44
44
131
44
44
131
44
44
131
44
44
0
0
0
0
0
0
0
0
0
0
0
0
0
0
0
0
0
0
0
0
0
0
0
0
0
0
0
0
0
0
0
0
0
0
0
0
0
0
0
0
0
0
70
23
23
70
23
23
241
214
214
254
253
253
108
36
36
108
36
36
108
36
36
206
109
109
206
109
109
108
36
36
108
36
36
196
81
81
219
148
148
231
184
184
131
44
44
131
44
44
131
44
44
131
44
44
0
0
0
0
0
0
0
0
0
0
0
0
0
0
0
0
0
0
0
0
0
0
0
0
0
0
0
0
0
0
0
0
0
0
0
0
0
0
0
0
0
0
0
0
0
0
0
0
0
0
0
219
148
148
219
148
148
108
36
36
108
36
36
108
36
36
108
36
36
108
36
36
108
36
36
219
148
148
219
148
148
0
0
0
131
44
44
231
184
184
231
184
184
231
184
184
131
44
44
0
0
0
0
0
0
0
0
0
0
0
0
0
0
0
0
0
0
0
0
0
0
0
0
0
0
0
0
0
0
0
0
0
0
0
0
0
0
0
0
0
0
0
0
0
0
0
0
219
148
148
219
148
148
108
36
36
108
36
36
108
36
36
108
36
36
108
36
36
108
36
36
219
148
148
219
148
148
0
0
0
131
44
44
231
184
184
231
184
184
231
184
184
131
44
44
0
0
0
0
0
0
0
0
0
0
0
0
0
0
0
0
0
0
0
0
0
0
0
0
0
0
0
0
0
0
0
0
0
0
0
0
0
0
0
70
23
23
70
23
23
241
214
214
254
253
253
108
36
36
108
36
36
108
36
36
206
109
109
254
253
253
108
36
36
108
36
36
196
81
81
219
148
148
231
184
184
131
44
44
131
44
44
131
44
44
131
44
44
0
0
0
0
0
0
0
0
0
0
0
0
0
0
0
0
0
0
0
0
0
0
0
0
0
0
0
0
0
0
0
0
0
0
0
0
0
0
0
0
0
0
70
23
23
70
23
23
254
253
253
254
253
253
108
36
36
108
36
36
108
36
36
206
109
109
206
109
109
108
36
36
108
36
36
196
81
81
196
81
81
231
184
184
131
44
44
131
44
44
131
44
44
131
44
44
0
0
0
0
0
0
0
0
0
0
0
0
0
0
0
0
0
0
0
0
0
0
0
0
0
0
0
0
0
0
0
0
0
0
0
0
0
0
0
0
0
0
70
23
23
70
23
23
0
0
0
0
0
0
0
0
0
0
0
0
108
36
36
108
36
36
108
36
36
108
36
36
131
44
44
131
44
44
131
44
44
131
44
44
131
44
44
131
44
44
131
44
44
0
0
0
0
0
0
0
0
0
0
0
0
0
0
0
0
0
0
0
0
0
0
0
0
0
0
0
0
0
0
0
0
0
0
0
0
0
0
0
0
0
0
0
0
0
0
0
0
0
0
0
0
0
0
0
0
0
70
23
23
70
23
23
108
36
36
108
36
36
108
36
36
108
36
36
108
36
36
0
0
0
131
44
44
131
44
44
131
44
44
131
44
44
131
44
44
131
44
44
131
44
44
0
0
0
0
0
0
0
0
0
0
0
0
0
0
0
0
0
0
0
0
0
0
0
0
0
0
0
0
0
0
0
0
0
0
0
0
0
0
0
0
0
0
0
0
0
0
0
0
0
0
0
70
23
23
70
23
23
108
36
36
108
36
36
108
36
36
108
36
36
108
36
36
0
0
0
0
0
0
0
0
0
0
0
0
0
0
0
0
0
0
0
0
0
0
0
0
0
0
0
0
0
0
0
0
0
0
0
0
0
0
0
0
0
0
0
0
0
0
0
0
0
0
0
0
0
0
0
0
0
0
0
0
0
0
0
0
0
0
0
0
0
0
0
0
0
0
0
0
0
0
0
0
0
0
0
0
0
0
0
0
0
0
0
0
0
0
0
0
0
0
0
0
0
0
0
0
0
0
0
0
0
0
0
0
0
0
0
0
0
0
0
0
0
0
0
0
0
0
0
0
0
0
0
0
0
0
0
0
0
0
0
0
0
0
0
0
0
0
0
0
0
0
0
0
0
0
0
0
0
0
0
0
0
0
0
0
0
0
0
0
0
0
0
0
0
0
0
0
0
0
0
0
0
0
0
0
0
0
0
0
0
0
0
0
0
0
0
0
0
0
0
0
0
0
0
0
0
0
0
0
0
0
0
0
0
0
0
0
0
0
0
0
0
0
0
0
0
0
0
0
