P3
# CREATOR: GIMP PNM Filter Version 1.1
32 16
255
0
0
0
0
0
0
109
36
36
109
36
36
0
0
0
0
0
0
0
0
0
0
0
0
0
0
0
0
0
0
0
0
0
190
63
63
190
63
63
190
63
63
190
63
63
190
63
63
190
63
63
0
0
0
196
81
81
238
204
204
196
81
81
238
204
204
196
81
81
238
204
204
196
81
81
0
0
0
0
0
0
0
0
0
0
0
0
0
0
0
0
0
0
0
0
0
0
0
0
109
36
36
190
63
63
190
63
63
109
36
36
0
0
0
0
0
0
0
0
0
0
0
0
0
0
0
190
63
63
190
63
63
190
63
63
190
63
63
207
112
112
207
112
112
207
112
112
207
112
112
207
112
112
196
81
81
196
81
81
238
204
204
196
81
81
238
204
204
196
81
81
0
0
0
0
0
0
0
0
0
0
0
0
0
0
0
0
0
0
0
0
0
0
0
0
109
36
36
190
63
63
190
63
63
190
63
63
109
36
36
0
0
0
0
0
0
0
0
0
133
44
44
133
44
44
232
186
186
232
186
186
133
44
44
133
44
44
133
44
44
133
44
44
133
44
44
133
44
44
133
44
44
133
44
44
196
81
81
196
81
81
238
204
204
196
81
81
0
0
0
0
0
0
0
0
0
0
0
0
0
0
0
0
0
0
0
0
0
109
36
36
190
63
63
0
0
0
0
0
0
190
63
63
109
36
36
0
0
0
0
0
0
0
0
0
133
44
44
133
44
44
232
186
186
232
186
186
133
44
44
133
44
44
193
70
70
193
70
70
193
70
70
193
70
70
193
70
70
133
44
44
0
0
0
196
81
81
196
81
81
196
81
81
0
0
0
0
0
0
0
0
0
0
0
0
0
0
0
0
0
0
0
0
0
109
36
36
190
63
63
254
253
253
0
0
0
190
63
63
109
36
36
0
0
0
0
0
0
0
0
0
133
44
44
133
44
44
193
70
70
193
70
70
193
70
70
133
44
44
193
70
70
193
70
70
193
70
70
73
24
24
193
70
70
133
44
44
0
0
0
0
0
0
0
0
0
0
0
0
0
0
0
0
0
0
0
0
0
0
0
0
0
0
0
0
0
0
0
0
0
109
36
36
190
63
63
190
63
63
190
63
63
190
63
63
109
36
36
190
63
63
0
0
0
0
0
0
133
44
44
133
44
44
133
44
44
232
186
186
232
186
186
193
70
70
193
70
70
193
70
70
193
70
70
193
70
70
193
70
70
133
44
44
0
0
0
0
0
0
0
0
0
0
0
0
0
0
0
0
0
0
0
0
0
0
0
0
0
0
0
0
0
0
0
0
0
109
36
36
190
63
63
190
63
63
109
36
36
109
36
36
0
0
0
190
63
63
0
0
0
0
0
0
133
44
44
133
44
44
193
70
70
193
70
70
193
70
70
193
70
70
193
70
70
193
70
70
193
70
70
0
0
0
193
70
70
133
44
44
0
0
0
0
0
0
0
0
0
0
0
0
0
0
0
0
0
0
0
0
0
0
0
0
0
0
0
0
0
0
0
0
0
109
36
36
109
36
36
109
36
36
207
112
112
207
112
112
207
112
112
207
112
112
207
112
112
207
112
112
133
44
44
133
44
44
232
186
186
232
186
186
133
44
44
193
70
70
193
70
70
193
70
70
193
70
70
193
70
70
193
70
70
133
44
44
0
0
0
0
0
0
0
0
0
0
0
0
0
0
0
0
0
0
0
0
0
0
0
0
0
0
0
0
0
0
0
0
0
0
0
0
0
0
0
0
0
0
207
112
112
207
112
112
207
112
112
207
112
112
207
112
112
207
112
112
133
44
44
133
44
44
232
186
186
232
186
186
133
44
44
193
70
70
193
70
70
193
70
70
193
70
70
0
0
0
193
70
70
133
44
44
0
0
0
0
0
0
0
0
0
0
0
0
0
0
0
0
0
0
0
0
0
0
0
0
0
0
0
0
0
0
0
0
0
109
36
36
109
36
36
109
36
36
109
36
36
109
36
36
0
0
0
187
62
62
0
0
0
0
0
0
133
44
44
133
44
44
193
70
70
193
70
70
193
70
70
193
70
70
193
70
70
193
70
70
193
70
70
193
70
70
193
70
70
133
44
44
0
0
0
0
0
0
0
0
0
0
0
0
0
0
0
0
0
0
0
0
0
0
0
0
0
0
0
0
0
0
0
0
0
109
36
36
190
63
63
190
63
63
190
63
63
190
63
63
109
36
36
187
62
62
0
0
0
0
0
0
133
44
44
133
44
44
133
44
44
232
186
186
232
186
186
193
70
70
193
70
70
193
70
70
193
70
70
0
0
0
193
70
70
133
44
44
0
0
0
0
0
0
0
0
0
0
0
0
0
0
0
0
0
0
0
0
0
0
0
0
0
0
0
0
0
0
0
0
0
0
0
0
109
36
36
190
63
63
0
0
0
0
0
0
190
63
63
109
36
36
0
0
0
0
0
0
133
44
44
133
44
44
193
70
70
193
70
70
193
70
70
133
44
44
193
70
70
193
70
70
193
70
70
193
70
70
193
70
70
133
44
44
0
0
0
0
0
0
0
0
0
0
0
0
0
0
0
0
0
0
0
0
0
0
0
0
0
0
0
0
0
0
0
0
0
0
0
0
109
36
36
190
63
63
254
253
253
0
0
0
190
63
63
109
36
36
0
0
0
0
0
0
133
44
44
133
44
44
232
186
186
232
186
186
133
44
44
133
44
44
193
70
70
193
70
70
193
70
70
193
70
70
193
70
70
133
44
44
0
0
0
196
81
81
196
81
81
196
81
81
0
0
0
0
0
0
0
0
0
0
0
0
0
0
0
0
0
0
0
0
0
0
0
0
0
0
0
109
36
36
190
63
63
190
63
63
190
63
63
109
36
36
0
0
0
0
0
0
133
44
44
133
44
44
232
186
186
232
186
186
133
44
44
133
44
44
133
44
44
133
44
44
133
44
44
133
44
44
133
44
44
133
44
44
196
81
81
196
81
81
238
204
204
196
81
81
0
0
0
0
0
0
0
0
0
0
0
0
0
0
0
0
0
0
0
0
0
0
0
0
0
0
0
109
36
36
190
63
63
190
63
63
190
63
63
109
36
36
0
0
0
0
0
0
0
0
0
190
63
63
190
63
63
190
63
63
190
63
63
207
112
112
207
112
112
207
112
112
207
112
112
207
112
112
196
81
81
196
81
81
238
204
204
196
81
81
238
204
204
196
81
81
0
0
0
0
0
0
0
0
0
0
0
0
0
0
0
0
0
0
0
0
0
0
0
0
0
0
0
0
0
0
109
36
36
109
36
36
109
36
36
0
0
0
0
0
0
0
0
0
0
0
0
0
0
0
190
63
63
190
63
63
190
63
63
190
63
63
190
63
63
190
63
63
0
0
0
196
81
81
238
204
204
196
81
81
238
204
204
196
81
81
238
204
204
196
81
81
0
0
0
0
0
0
0
0
0
0
0
0
0
0
0
0
0
0
0
0
0
